<svg width="320" height="168" viewBox="0 0 320 168" fill="none" xmlns="http://www.w3.org/2000/svg">
<g clip-path="url(#clip0_2817_21913)">
<path d="M319.32 122.459C317.644 133.111 312.451 143.45 303.88 149.993C295.446 156.438 284.639 158.727 274.207 160.695C261.695 163.059 249.149 165.219 236.569 167.176C234.786 167.461 233.001 167.735 231.215 168H157.941C157.866 167.901 157.788 167.798 157.714 167.695C157.595 167.522 157.475 167.349 157.36 167.176C157.294 167.078 157.228 166.975 157.162 166.872H203.123C204.428 166.871 205.678 166.352 206.601 165.431C207.523 164.509 208.043 163.259 208.045 161.955V100.619C208.341 99.688 208.617 98.7533 208.869 97.8062C210.041 93.3962 210.803 88.8875 211.146 84.3373C211.393 81.1667 211.467 77.9961 211.414 74.8214C211.262 66.0961 210.121 57.3708 208.881 48.7072C208.791 48.069 208.696 47.4266 208.605 46.7884C207.732 40.7684 206.937 34.2172 209.972 28.9424C213.444 22.9059 221.15 20.39 228.089 21.0077C240.572 22.1236 251.086 31.6807 256.551 42.959C262.013 54.2331 263.236 67.0555 263.734 79.5732C263.998 86.2109 263.969 93.145 263.042 99.8033C266.172 92.6468 269.305 85.4903 272.44 78.3338C274.112 74.5167 275.871 70.5761 278.968 67.7843C285.442 61.9414 296.15 63.119 303.065 68.439C309.975 73.7632 313.764 82.1756 316.285 90.5221C319.407 100.845 321 111.806 319.32 122.459Z" fill="#F2F2F2"/>
<path d="M291.706 64.6004C296.233 72.6167 298.31 81.8089 298.26 90.982C298.19 100.077 296.178 109.052 292.358 117.306C288.903 124.759 284.089 131.504 278.163 137.194C272.315 142.871 265.375 147.304 257.764 150.222C248.932 153.532 239.381 154.439 230.084 152.852C228.792 152.63 227.51 152.361 226.238 152.045C225.466 151.855 225.136 153.046 225.909 153.236C235.584 155.634 245.729 155.342 255.25 152.393C263.179 149.842 270.496 145.68 276.741 140.169C283.063 134.642 288.291 127.978 292.154 120.522C296.381 112.36 298.847 103.401 299.392 94.2256C299.932 84.9149 298.371 75.4383 294.343 66.9923C293.855 65.9689 293.332 64.9637 292.772 63.9769C292.687 63.8414 292.552 63.7444 292.396 63.7065C292.241 63.6685 292.076 63.6924 291.938 63.7733C291.799 63.8542 291.698 63.9856 291.655 64.1399C291.611 64.2942 291.63 64.4593 291.706 64.6004H291.706Z" fill="white"/>
<path d="M226.137 20.8443C231.156 30.0955 235.068 39.9059 237.791 50.0726C243.241 70.4348 244.062 91.759 240.193 112.48C238.261 122.833 235.111 132.92 230.807 142.532C226.516 152.064 220.339 162.106 209.786 165.443C208.595 165.818 207.375 166.091 206.137 166.259C205.353 166.366 205.687 167.557 206.466 167.45C217.382 165.952 224.966 156.885 229.723 147.643C234.645 138.079 238.15 127.694 240.481 117.209C245.1 96.2886 244.934 74.595 239.995 53.7474C237.541 43.3618 233.874 33.3009 229.069 23.7721C228.465 22.5788 227.843 21.3951 227.203 20.2209C226.823 19.5223 225.756 20.1451 226.137 20.8443V20.8443Z" fill="white"/>
<path d="M174.472 19.0477H100.506C99.0043 19.0497 97.5651 19.6468 96.5035 20.7082C95.4419 21.7695 94.8447 23.2085 94.8428 24.7095V61.7644H106.226C107.059 61.7621 107.878 61.9723 108.607 62.3751C109.335 62.7779 109.949 63.3599 110.39 64.0661L114.335 70.3456L118.108 76.345L118.816 77.4732L123.132 84.3374L123.182 84.4156H180.135V24.7095C180.133 23.2085 179.536 21.7695 178.474 20.7082C177.413 19.6468 175.973 19.0497 174.472 19.0477Z" fill="#63A650" fill-opacity="0.25"/>
<path d="M145.153 30.3754H108.503C107.532 30.3754 106.6 30.7613 105.913 31.4481C105.226 32.135 104.84 33.0666 104.84 34.038C104.84 35.0094 105.226 35.941 105.913 36.6279C106.6 37.3148 107.532 37.7007 108.503 37.7007H145.153C146.124 37.7007 147.056 37.3148 147.743 36.6279C148.43 35.941 148.816 35.0094 148.816 34.038C148.816 33.0666 148.43 32.135 147.743 31.4481C147.056 30.7613 146.124 30.3754 145.153 30.3754Z" fill="white"/>
<path d="M165.477 48.3613H108.837C107.776 48.3613 106.759 48.7826 106.009 49.5324C105.259 50.2822 104.838 51.2992 104.838 52.3596C104.838 53.42 105.259 54.4369 106.009 55.1868C106.759 55.9366 107.776 56.3578 108.837 56.3578H165.477C166.538 56.3578 167.555 55.9366 168.305 55.1868C169.055 54.4369 169.476 53.42 169.476 52.3596C169.476 51.2992 169.055 50.2822 168.305 49.5324C167.555 48.7826 166.538 48.3613 165.477 48.3613Z" fill="white"/>
<path d="M169.093 64.6549C168.771 63.9675 168.26 63.3859 167.62 62.9783C166.98 62.5707 166.236 62.3538 165.477 62.3531H108.837C108.75 62.3531 108.668 62.3573 108.582 62.3614C109.321 62.7651 109.943 63.3521 110.39 64.0661L114.335 70.3455H165.477C166.15 70.3457 166.811 70.1761 167.401 69.8524C167.99 69.5286 168.489 69.0613 168.849 68.4938C169.21 67.9262 169.421 67.2767 169.464 66.6056C169.507 65.9346 169.379 65.2636 169.093 64.6549Z" fill="white"/>
<path d="M169.435 79.8038C169.305 78.8464 168.832 77.9686 168.104 77.3327C167.377 76.6969 166.443 76.346 165.477 76.345H118.107L118.816 77.4732L123.132 84.3374H165.477C166.309 84.3391 167.121 84.0783 167.796 83.592C168.314 83.2227 168.737 82.7347 169.029 82.1689C169.32 81.603 169.472 80.9756 169.472 80.3391C169.472 80.16 169.46 79.9811 169.435 79.8038Z" fill="white"/>
<path d="M214.647 50.9596L208.881 48.7072L180.135 37.4907L145.742 24.0712C144.342 23.528 142.784 23.562 141.409 24.1656C140.034 24.7692 138.954 25.8932 138.407 27.2912L137.205 30.3754L134.342 37.7007L130.183 48.3613L127.061 56.3578L124.722 62.3531L121.6 70.3455L119.257 76.3449L119.191 76.5179L118.816 77.4732L123.132 84.3373L123.181 84.4156H203.124C203.858 84.4149 204.582 84.5788 205.244 84.8952C205.906 85.2116 206.489 85.6724 206.95 86.2438L207.287 85.3873L211.414 74.8214L217.863 58.2972C218.408 56.8976 218.375 55.3392 217.772 53.9637C217.169 52.5882 216.045 51.5079 214.647 50.9596Z" fill="#63A650"/>
<path d="M183.215 50.8526L180.135 49.6502L149.074 37.5319C148.168 37.1815 147.161 37.2034 146.271 37.593C145.381 37.9825 144.682 38.7081 144.325 39.6113C143.974 40.5174 143.996 41.5255 144.387 42.4153C144.778 43.305 145.505 44.0039 146.409 44.359L156.668 48.3614L169.357 53.3108L180.135 57.519L180.551 57.6796C181.456 58.031 182.463 58.0089 183.352 57.6182C184.241 57.2275 184.938 56.5002 185.291 55.5959C185.644 54.6916 185.624 53.6842 185.235 52.7949C184.845 51.9056 184.119 51.207 183.215 50.8526Z" fill="white"/>
<path d="M195.604 74.9985L180.135 68.962L169.094 64.6549L163.196 62.3531L147.834 56.3578L142.843 54.4102C141.912 54.0467 140.878 54.045 139.946 54.4055C139.014 54.766 138.25 55.4625 137.806 56.3578C137.757 56.4608 137.707 56.5678 137.666 56.679C137.475 57.1678 137.382 57.6895 137.393 58.2142C137.404 58.7389 137.518 59.2563 137.728 59.7369C137.939 60.2176 138.242 60.652 138.621 61.0154C139 61.3788 139.446 61.6641 139.935 61.8549L141.212 62.3531L161.689 70.3455L180.135 77.5432L192.696 82.4473C193.158 82.6278 193.65 82.72 194.146 82.7191C195.078 82.7208 195.982 82.3963 196.701 81.8018C197.42 81.2073 197.908 80.3803 198.081 79.464C198.254 78.5476 198.101 77.5996 197.648 76.7841C197.196 75.9686 196.473 75.337 195.604 74.9985H195.604Z" fill="white"/>
<path d="M180.135 83.9791L179.142 83.592L169.435 79.8038L160.568 76.345L145.19 70.3455L137.752 67.4426C137.263 67.2512 136.741 67.1581 136.215 67.1687C135.69 67.1792 135.172 67.2932 134.691 67.5042C134.209 67.7151 133.774 68.0188 133.411 68.3979C133.047 68.777 132.762 69.2242 132.571 69.7137C132.38 70.2032 132.288 70.7255 132.299 71.2507C132.31 71.776 132.425 72.2939 132.636 72.7748C132.848 73.2557 133.152 73.6901 133.532 74.0533C133.912 74.4165 134.359 74.7013 134.849 74.8914L138.572 76.345L157.146 83.5921L159.057 84.3374L159.255 84.4156H181.251L180.135 83.9791Z" fill="white"/>
<path d="M142.563 84.3374L140.652 83.5921L132.666 80.475C132.108 80.2565 131.508 80.1664 130.911 80.2113C130.313 80.2562 129.734 80.4349 129.215 80.7343C128.696 81.0337 128.251 81.446 127.913 81.9407C127.575 82.4354 127.353 82.9998 127.263 83.5921C127.223 83.8384 127.208 84.0881 127.218 84.3374C127.217 84.3635 127.218 84.3897 127.222 84.4156H142.765L142.563 84.3374Z" fill="white"/>
<path d="M159.057 84.3374L157.146 83.5921H127.263C127.223 83.8384 127.208 84.088 127.217 84.3374H123.132L123.182 84.4156H159.255L159.057 84.3374ZM159.057 84.3374H123.132L123.182 84.4156H159.255L159.057 84.3374ZM159.057 84.3374H123.132L123.182 84.4156H159.255L159.057 84.3374ZM159.255 84.4156L159.057 84.3374H123.132L123.182 84.4156H159.255ZM87.1785 166.872C85.875 166.87 84.6254 166.351 83.7036 165.43C82.7819 164.508 82.2632 163.259 82.2612 161.955V66.6849C82.2623 65.381 82.7806 64.1307 83.7024 63.2082C84.6242 62.2858 85.8743 61.7666 87.1785 61.7643H94.8428V60.9408H87.1785C85.6561 60.9437 84.1969 61.5499 83.1207 62.6266C82.0446 63.7034 81.4393 65.1628 81.4375 66.6849V161.955C81.4388 163.056 81.7567 164.134 82.3532 165.06C82.9497 165.985 83.7998 166.72 84.8022 167.176H157.36C157.294 167.078 157.228 166.975 157.162 166.872H87.1785ZM207.287 85.3874C206.753 84.8199 206.107 84.368 205.391 84.0592C204.675 83.7505 203.904 83.5915 203.124 83.5921H123.639L119.191 76.5179L119.084 76.3449L115.311 70.3455L111.086 63.6255C110.568 62.8046 109.851 62.128 109.001 61.6586C108.151 61.1892 107.197 60.9423 106.226 60.9408H87.1785C85.6561 60.9437 84.1969 61.5499 83.1207 62.6266C82.0446 63.7034 81.4393 65.1628 81.4375 66.6849V161.955C81.4388 163.056 81.7567 164.134 82.3532 165.06C82.9497 165.985 83.7998 166.72 84.8022 167.176C85.5474 167.519 86.3582 167.697 87.1785 167.695H203.124C203.945 167.697 204.758 167.519 205.504 167.176C206.507 166.72 207.357 165.985 207.953 165.06C208.55 164.134 208.868 163.056 208.869 161.955V89.3362C208.87 87.8654 208.303 86.4509 207.287 85.3874ZM208.045 161.955C208.043 163.259 207.524 164.509 206.601 165.431C205.678 166.352 204.428 166.871 203.124 166.872H87.1785C85.875 166.87 84.6254 166.351 83.7036 165.43C82.7819 164.508 82.2632 163.259 82.2612 161.955V66.6849C82.2623 65.381 82.7806 64.1307 83.7024 63.2082C84.6242 62.2858 85.8743 61.7666 87.1785 61.7643H106.226C107.059 61.7621 107.878 61.9723 108.607 62.3751C109.335 62.7779 109.949 63.3599 110.39 64.0661L114.335 70.3455L118.108 76.3449L118.816 77.4732L123.132 84.3373L123.182 84.4156H203.124C204.429 84.4167 205.68 84.9355 206.603 85.858C207.525 86.7806 208.044 88.0315 208.045 89.3362V161.955ZM159.057 84.3374H123.132L123.182 84.4156H159.255L159.057 84.3374ZM159.057 84.3374H123.132L123.182 84.4156H159.255L159.057 84.3374ZM159.057 84.3374H123.132L123.182 84.4156H159.255L159.057 84.3374ZM159.057 84.3374L157.146 83.5921H123.639L119.191 76.5179L118.816 77.4732L123.132 84.3374L123.182 84.4156H159.255L159.057 84.3374Z" fill="#4A5056"/>
<path d="M64.629 118.494L62.27 123.425L42.124 116.675L45.6053 109.397L64.629 118.494Z" fill="#EBC7A6"/>
<path d="M58.9569 126.731L63.7254 116.764L69.7143 119.627L62.3004 135.125L61.8425 134.906C60.3756 134.205 59.2475 132.949 58.7063 131.416C58.1652 129.883 58.2553 128.198 58.9569 126.731Z" fill="#9499C7"/>
<path d="M69.3782 162.53L63.9143 162.346L63.6841 141.081L70.0894 141.459L69.3782 162.53Z" fill="#EBC7A6"/>
<path d="M59.5567 160.636L70.6018 161.009L70.3779 167.643L53.2053 167.063L53.2224 166.556C53.2772 164.931 53.9754 163.395 55.1633 162.284C56.3512 161.174 57.9316 160.581 59.5567 160.636Z" fill="#9499C7"/>
<path d="M78.1773 73.5327C78.1773 73.5327 61.4545 69.297 53.8736 75.539L49.6371 87.8002L32.6914 111.877L57.2181 126.59L61.6775 115.444L50.975 110.093L63.9072 98.9467L61.6775 157.8L70.1504 159.138C70.1504 159.138 88.8799 86.4626 78.1773 73.5327Z" fill="#4F527D"/>
<path d="M52.8066 77.3526L53.0104 76.9903C55.159 73.1713 54.8109 66.9523 54.1405 62.408C53.5791 58.6016 53.596 51.8937 53.709 46.9365C53.7369 45.2633 54.3337 43.6495 55.4013 42.3606C56.4688 41.0718 57.9434 40.1847 59.5824 39.8454C64.6697 38.787 70.9151 38.5627 74.1852 38.5231L74.1879 38.746L74.1852 38.5231C75.0737 38.5196 75.9282 38.8643 76.5653 39.4835C77.2025 40.1026 77.5716 40.9468 77.5933 41.8348C77.6929 47.173 77.6619 56.9074 76.337 62.1302C74.3705 69.8818 77.4455 75.1494 77.4768 75.2016L77.6624 75.5116L52.8066 77.3526Z" fill="#9499C7"/>
<path d="M44.2044 98.7305C44.7488 98.4698 45.2293 98.093 45.6123 97.6266C45.9953 97.1601 46.2713 96.6154 46.4209 96.0308C46.5705 95.4461 46.5901 94.8358 46.4783 94.2428C46.3665 93.6498 46.126 93.0885 45.7737 92.5984L55.2113 51.9084H48.0763L39.7471 91.7965C38.963 92.4427 38.4431 93.354 38.2862 94.3579C38.1292 95.3617 38.3459 96.3882 38.8954 97.2429C39.4448 98.0976 40.2887 98.7211 41.2672 98.9953C42.2457 99.2694 43.2907 99.1752 44.2044 98.7305Z" fill="#EBC7A6"/>
<path d="M101.589 58.6774L85.8395 43.7816L81.5828 49.7399L92.2246 59.103L78.2685 70.1838C78.1677 70.177 78.0673 70.1684 77.9646 70.1684C77.1058 70.1676 76.265 70.4142 75.5426 70.8786C74.8203 71.3431 74.2471 72.0058 73.8916 72.7874C73.5361 73.569 73.4134 74.4365 73.5381 75.286C73.6628 76.1356 74.0297 76.9312 74.5948 77.5778C75.1599 78.2243 75.8994 78.6944 76.7247 78.9318C77.55 79.1691 78.4263 79.1637 79.2487 78.9162C80.071 78.6687 80.8046 78.1896 81.3617 77.5361C81.9188 76.8826 82.2759 76.0825 82.3901 75.2315L82.4342 75.2756L101.589 58.6774Z" fill="#EBC7A6"/>
<path d="M58.5805 40.3685C58.5805 40.3685 48.7453 38.7556 47.8535 46.3352C46.9616 53.9149 46.5156 53.9149 46.5156 53.9149C46.5156 53.9149 53.6507 52.5773 55.4344 54.3607C57.2182 56.1442 58.5805 40.3685 58.5805 40.3685Z" fill="#9499C7"/>
<path d="M73.272 39.2015C73.272 39.2015 81.2989 37.8639 84.8664 41.4308C88.4339 44.9977 90.2177 45.8894 90.2177 45.8894C90.2177 45.8894 82.1908 50.348 85.3123 54.3607C85.3123 54.3607 76.8395 50.348 75.5017 51.6856C74.1639 53.0232 73.272 39.2015 73.272 39.2015Z" fill="#9499C7"/>
<path d="M66.2318 13.3158C63.6998 11.2941 63.0345 7.39205 64.5035 4.50434C65.9726 1.61664 69.2939 -0.123123 72.5317 0.00680195C75.7694 0.136727 78.8203 1.99526 80.6961 4.63704C83.331 8.34804 83.8839 13.5058 87.3876 16.4111C90.5522 19.0352 95.0855 18.96 99.1915 18.7512C100.576 18.6809 102.004 18.5993 103.246 17.9845C104.488 17.3696 105.503 16.0729 105.343 14.6966C106.374 16.3292 105.776 18.6182 104.392 19.9653C103.008 21.3123 101.038 21.8767 99.1194 22.1014C95.7351 22.4571 92.3165 21.9252 89.2003 20.5582C86.0841 19.1912 83.3778 17.0362 81.3479 14.3055C79.9193 12.335 78.8167 10.0404 76.8564 8.59775C74.896 7.15507 71.6274 7.05464 70.4239 9.1701C69.8287 10.2164 69.8871 11.5288 69.3398 12.6009C68.7924 13.673 67.0149 14.2511 66.4879 13.1689" fill="#4F527D"/>
<path d="M65.8445 34.8172C72.668 34.8172 78.1997 29.2866 78.1997 22.4642C78.1997 15.6418 72.668 10.1112 65.8445 10.1112C59.0209 10.1112 53.4893 15.6418 53.4893 22.4642C53.4893 29.2866 59.0209 34.8172 65.8445 34.8172Z" fill="#4F527D"/>
<path d="M65.77 35.7842C71.3565 35.7842 75.8852 31.2563 75.8852 25.6708C75.8852 20.0853 71.3565 15.5574 65.77 15.5574C60.1835 15.5574 55.6548 20.0853 55.6548 25.6708C55.6548 31.2563 60.1835 35.7842 65.77 35.7842Z" fill="#EBC7A6"/>
<path d="M56.5469 18.243C57.9216 18.5437 57.4717 20.8494 58.5581 21.7437C59.538 22.5505 60.9492 21.7208 62.1825 21.4205C63.7396 21.0413 65.3693 21.5968 66.8069 22.3049C68.2445 23.0131 69.6307 23.892 71.199 24.2219C72.7672 24.5518 74.6265 24.18 75.5056 22.8403C76.3462 21.5593 76.0368 19.8318 75.3792 18.448C74.5615 16.7275 73.2782 15.2703 71.6747 14.2414C70.0713 13.2126 68.2117 12.6534 66.3066 12.627C64.4015 12.6006 62.5271 13.1081 60.8958 14.0921C59.2644 15.0761 57.9412 16.4972 57.0762 18.1944" fill="#4F527D"/>
<path d="M294.877 167.588C294.877 167.697 294.834 167.802 294.756 167.879C294.679 167.956 294.575 168 294.466 168H0.41184C0.302613 168 0.19786 167.957 0.120625 167.879C0.0433898 167.802 0 167.697 0 167.588C0 167.479 0.0433898 167.374 0.120625 167.297C0.19786 167.22 0.302613 167.177 0.41184 167.177H294.466C294.575 167.177 294.679 167.22 294.756 167.298C294.834 167.375 294.877 167.479 294.877 167.588Z" fill="#4A5056"/>
</g>
<defs>
<clipPath id="clip0_2817_21913">
<rect width="320" height="168" fill="white"/>
</clipPath>
</defs>
</svg>
