<svg width="175" height="97" viewBox="0 0 175 97" fill="none" xmlns="http://www.w3.org/2000/svg">
<g filter="url(#filter0_b_4010_4266)">
<path d="M161.397 19.0024L149.878 23.9267C149.411 21.2548 148.179 7.31951 149.609 4.94706C150.086 3.99808 150.086 3.99808 150.563 3.52359C151.697 2.3945 151.75 2.38654 152.47 2.10018C154.853 1.15116 156.76 2.10008 157.714 2.57466C159.621 3.52364 159.621 3.99813 160.446 5.22344C161.174 6.7959 161.174 7.74488 161.397 9.95733V19.0024Z" fill="#BC9779"/>
<path d="M168.201 80.4454C168.069 80.6791 167.877 80.879 167.641 81.0269C167.404 81.1748 167.132 81.2661 166.849 81.2927C166.703 81.3059 166.744 81.5123 166.889 81.4992C167.202 81.4684 167.503 81.3672 167.764 81.2043C168.025 81.0415 168.24 80.8219 168.388 80.5648C168.404 80.5417 168.41 80.5137 168.405 80.4866C168.4 80.4595 168.383 80.4353 168.359 80.4189C168.335 80.4031 168.304 80.3971 168.275 80.4021C168.245 80.4071 168.219 80.4226 168.201 80.4454V80.4454Z" fill="white"/>
<path d="M143.632 93.8354L141.312 93.5037L141.592 85.0695L145.017 85.5591L143.632 93.8354Z" fill="#FFE3CF"/>
<path d="M143.877 96L136.394 94.9301L136.408 94.8426C136.528 94.1284 136.949 93.4874 137.58 93.0604C138.21 92.6335 138.999 92.4557 139.771 92.566L139.771 92.5661L144.342 93.2195L143.877 96Z" fill="#4F527D"/>
<path d="M168.023 93.6229L165.677 93.7153L164.175 85.3921L167.638 85.2557L168.023 93.6229Z" fill="#FFE3CF"/>
<path d="M168.719 95.702L161.153 95.9999L161.149 95.9115C161.116 95.1894 161.394 94.4848 161.923 93.9525C162.452 93.4201 163.187 93.1038 163.968 93.073H163.969L168.589 92.891L168.719 95.702Z" fill="#4F527D"/>
<path d="M163.404 44.0028C163.515 43.974 163.628 43.9545 163.742 43.9445L162.28 32.8755L157.317 23.1583C157.005 22.5471 156.955 21.8491 157.178 21.2051C157.4 20.5612 157.878 20.0192 158.516 19.6885C159.154 19.3578 159.903 19.263 160.614 19.4233C161.324 19.5835 161.942 19.9868 162.343 20.5518V20.5519C163.644 22.3829 164.628 24.3903 165.26 26.5017L167.345 33.4718L165.82 45.4248C165.878 45.7617 165.83 46.1071 165.682 46.4193C165.533 46.7316 165.29 46.9974 164.981 47.1848C164.673 47.3722 164.312 47.4733 163.943 47.4758C163.574 47.4783 163.212 47.3821 162.901 47.1989C162.59 47.0157 162.342 46.7532 162.189 46.443C162.035 46.1328 161.981 45.7881 162.034 45.4504C162.088 45.1128 162.245 44.7965 162.488 44.5397C162.731 44.2828 163.049 44.0964 163.404 44.0028V44.0028Z" fill="#FFE3CF"/>
<path d="M137.327 33.6511C137.405 33.7298 137.474 33.8148 137.535 33.9051L147.592 27.7496L154.777 19.3028C155.229 18.7715 155.882 18.4184 156.604 18.3147C157.327 18.211 158.065 18.3645 158.67 18.7442C159.275 19.1239 159.701 19.7016 159.864 20.3607C160.026 21.0199 159.912 21.7114 159.545 22.2958C158.354 24.1899 156.851 25.9006 155.091 27.3665L149.278 32.2054L137.031 36.285C136.731 36.4839 136.376 36.5984 136.007 36.6148C135.638 36.6312 135.272 36.5488 134.953 36.3775C134.634 36.2061 134.375 35.9532 134.208 35.649C134.041 35.3449 133.972 35.0025 134.01 34.6631C134.048 34.3238 134.192 34.0018 134.423 33.736C134.655 33.4703 134.964 33.272 135.315 33.1651C135.665 33.0581 136.042 33.0471 136.399 33.1333C136.756 33.2196 137.078 33.3994 137.327 33.6511Z" fill="#FFE3CF"/>
<path d="M156.148 23.1377C155.79 22.2355 155.827 21.2395 156.251 20.3621C156.676 19.4848 157.455 18.7956 158.421 18.4417C159.388 18.0878 160.465 18.0971 161.425 18.4678C162.384 18.8384 163.148 19.541 163.555 20.4256L166.661 27.1805L160.391 33.8123L156.148 23.1377Z" fill="#C22E49"/>
<path d="M151.331 24.2924L155.545 17.7397C158.456 15.9799 160.851 17.1306 162.128 20.1217C163.24 22.7279 164.104 26.0251 163.59 29.4283C162.44 37.0517 161.483 37.9292 161.483 37.9292C161.483 37.9292 168.666 45.2789 167.134 54.6652L168.283 90.0854L164.835 89.9083L160.047 69.5417L156.407 56.7904L150.086 72.3753L144.532 90.4396L140.701 89.7312L142.999 69.7188L146.255 46.6957L149.991 37.9292L148.171 31.8192C148.171 31.8192 146.064 27.5688 151.331 24.2924Z" fill="#C22E49"/>
<path d="M154.274 18.3266C154.987 17.6268 155.967 17.2123 157.006 17.1715C158.045 17.1307 159.059 17.4669 159.834 18.1083C160.608 18.7496 161.081 19.6454 161.151 20.6044C161.221 21.5634 160.882 22.5097 160.208 23.2413L155.06 28.8288L145.842 26.6056L154.274 18.3266Z" fill="#C22E49"/>
<path d="M157.696 14.7649C160.455 13.3702 161.47 10.1712 159.961 7.61976C158.453 5.06833 154.993 4.13064 152.233 5.52538C149.474 6.92012 148.459 10.1191 149.968 12.6706C151.476 15.222 154.936 16.1597 157.696 14.7649Z" fill="#FFE3CF"/>
<path d="M160.698 7.38955C158.728 7.02012 156.79 6.9694 154.907 7.43799C153.708 7.86076 152.267 7.8218 150.665 7.47347L149.733 7.2704L150.665 3.94897L159.314 4.11681L160.698 7.38955Z" fill="#BC9779"/>
<path d="M160.698 7.38955C158.728 7.02012 156.79 6.9694 154.907 7.43799C153.708 7.86076 152.267 7.8218 150.665 7.47347L149.733 7.2704L150.665 3.94897L159.314 4.11681L160.698 7.38955Z" fill="#BC9779"/>
</g>
<path d="M112.999 94H110.967L110 85L113 85.0002L112.999 94Z" fill="#C2A4A4"/>
<path d="M113.399 96.325L106.061 96.3247V96.2319C106.061 95.4745 106.362 94.7481 106.898 94.2126C107.433 93.677 108.16 93.3761 108.917 93.3761H108.917L110.258 92.3593L112.758 93.3762L113.399 93.3762L113.399 96.325Z" fill="#4F527D"/>
<path d="M103 83.1263L100.724 84L96 76.2893L99.3595 75L103 83.1263Z" fill="#C2A4A4"/>
<path d="M104 85.4608L97.2522 88L97.2168 87.9226C96.928 87.2905 96.9277 86.5801 97.216 85.9478C97.5043 85.3155 98.0575 84.813 98.754 84.5509L98.7542 84.5508L99.599 83.2384L102.286 83.2216L102.875 83L104 85.4608Z" fill="#4F527D"/>
<path d="M115.938 45L99.0701 46.6459L96.8138 53.7432L89 65.4708C89 65.4708 94.4523 74.0415 93.9404 73.9481C93.4285 73.8547 94.4518 76.191 95.1685 76.0554C95.8852 75.9197 96.6305 77.443 96.135 77.7139C95.6396 77.9847 97.6275 80.2748 97.6275 80.2748L100.666 77.7278C101.312 73.1751 100.531 69.1231 97.7494 65.7734L106.454 56.9966L108.105 56.3569L109.415 88.9257L114.262 89C115.599 82.5754 116.271 76.793 115.225 72.668C115.225 72.668 115.375 60.276 115.949 60.4115C116.522 60.547 116.036 58.9327 116.036 58.9327C116.036 58.9327 115.534 57.5578 116.151 56.9874C116.767 56.4171 116.382 53.0624 116.382 53.0624C117.401 49.8876 117.095 47.2663 115.938 45Z" fill="#171934"/>
<path d="M102.989 18.9752L107.713 17.8344L109.919 15L115.156 15.6L116.271 19.466L120 21.4828C120 21.4828 117.939 41.7945 118.429 42.9098C118.92 44.0251 120.677 43.933 119.176 45.3708C117.675 46.8085 117.476 46.2294 117.824 47.7946C118.173 49.3598 120.712 51.0163 117.824 50.9999C114.937 50.9834 97.5126 50.7515 98.0105 48.8959C98.5083 47.0404 98.5005 47.5116 99.2511 46.3482C100.002 45.1848 100.507 45.835 100.254 44.1182C100.002 42.4015 100.251 41.2418 100.251 40.314C100.251 39.3862 101.085 30.9554 101.085 30.9554L102.989 18.9752Z" fill="#A7B3BE"/>
<path d="M112.5 15C115.538 15 118 12.5376 118 9.5C118 6.46243 115.538 4 112.5 4C109.462 4 107 6.46243 107 9.5C107 12.5376 109.462 15 112.5 15Z" fill="#BE9B9B"/>
<path d="M107 6.4765C107.47 6.84149 107.362 8.61654 107.886 8.32722C108.409 8.03789 108.518 7.51978 109.121 7.51435C109.612 7.54044 110.076 7.74211 110.421 8.07981C110.485 8.13555 110.546 8.194 110.605 8.25178C110.66 8.23351 110.713 8.21695 110.769 8.20337C111.192 8.10413 111.638 8.16454 112.016 8.37215C111.667 8.39611 111.335 8.52489 111.067 8.74029C111.182 8.86427 111.298 8.98892 111.421 9.10414C112.446 10.0695 114.547 9.04145 115.96 8.80947C114.783 10.0446 115.015 10.7341 115.308 12.3849L115.309 12.4751C115.369 12.0944 116.638 12.1133 116.428 12.6185C116.166 13.1176 115.837 13.5819 115.451 14C117.179 12.8491 118.574 11.2626 118.883 9.34616C118.946 8.94322 119.069 8.53211 118.95 8.13924C118.899 7.9406 118.781 7.76371 118.615 7.6362C118.449 7.5087 118.243 7.43777 118.03 7.43448C118.223 6.84662 118.246 6.21959 118.098 5.62006C117.949 5.02053 117.634 4.47091 117.187 4.02963C116.739 3.58834 116.176 3.2719 115.556 3.11393C114.936 2.95596 114.284 2.96238 113.667 3.13249C113.105 3.32453 112.557 3.55202 112.026 3.81348C111.49 4.07595 110.884 4.1747 110.288 4.09651C109.917 4.02279 109.541 3.83802 109.177 3.94264C108.755 4.06419 108.574 4.49224 108.405 4.90546C108.722 5.01683 108.998 5.21658 109.196 5.4792C108.868 5.36286 108.511 5.34889 108.174 5.43927C108.168 5.44031 108.162 5.4419 108.156 5.44401C107.774 6.1016 107.752 6.26285 107 6.4765Z" fill="#4F527D"/>
<path d="M108.109 17.0152C105.439 16.8054 103 18.7987 101.889 21.1777C100.777 23.5568 100.704 26.2557 100.65 28.87L100.483 36.9964C100.458 38.1989 100.433 39.4017 100.372 40.6029C100.34 41.7719 100.189 42.9348 99.922 44.0746C99.3776 46.1662 98.1801 48.03 97 49.8549C100.021 50.7463 103.094 51.4626 106.202 52C107.754 47.0999 109.324 42.059 108.942 36.9435C108.74 34.2367 107.994 31.5938 107.711 28.8939C107.309 25.0701 107.841 21.2181 108.373 17.4094" fill="white"/>
<path d="M115.405 17C118.241 17.4201 120.26 19.9512 120.797 22.5505C121.334 25.1498 120.706 27.8197 120.08 30.4021C119.432 33.0779 118.784 35.7536 118.135 38.4294C117.848 39.6172 117.56 40.8053 117.31 42.0005C117.068 43.1616 118.083 44.6507 118.094 45.833C118.116 48.0166 117.656 49.8151 118.409 51.8856C115.03 52.0532 111.644 52.0366 108.267 51.8359C107.929 46.6552 107.609 41.332 109.34 36.3932C110.256 33.7798 111.722 31.357 112.722 28.7696C114.137 25.1051 114.588 21.194 115.028 17.3256" fill="white"/>
<path d="M117.189 54.275C117.004 53.9395 116.953 53.5422 117.045 53.1675C117.137 52.7928 117.365 52.4703 117.681 52.2687C117.746 52.2288 117.814 52.1945 117.885 52.1663L117.568 40.9114L121 40L119.691 53.1124C119.781 53.4258 119.768 53.7614 119.656 54.0666C119.544 54.3719 119.337 54.6298 119.07 54.8C118.917 54.8953 118.747 54.9582 118.57 54.9851C118.394 55.012 118.214 55.0024 118.041 54.9568C117.868 54.9112 117.706 54.8304 117.563 54.7193C117.419 54.6081 117.299 54.4686 117.207 54.3087C117.201 54.2976 117.195 54.2864 117.189 54.275Z" fill="#C2A4A4"/>
<path d="M116.751 21.5202C116.751 21.5202 119.43 19.4398 121.685 23.5995C123.94 27.7593 122.68 37.2621 122.362 37.7693C122.045 38.2765 121.851 37.57 122.025 38.9219C122.167 40.0214 121.326 39.8839 121.627 40.1185C122.423 40.7372 120.196 40.8076 121.34 41.3528C122.483 41.8979 117.365 42 117.365 42C117.365 42 116.746 41.5941 117.176 40.0636C117.417 39.204 118.022 38.8895 117.377 38.4917C116.732 38.0939 118.043 36.8642 118.044 36.5943C118.045 36.3245 116 30.4229 116 30.4229L116.751 21.5202Z" fill="white"/>
<path d="M102.708 52.348C102.887 52.0265 102.952 51.6361 102.888 51.2599C102.824 50.8837 102.636 50.5515 102.365 50.3339C102.309 50.2906 102.251 50.2528 102.19 50.2209L103 39.0984L100 38L100.544 51.0541C100.449 51.3592 100.445 51.6921 100.53 52.0007C100.615 52.3093 100.786 52.5763 101.015 52.7601C101.147 52.8632 101.294 52.9352 101.449 52.9719C101.604 53.0086 101.764 53.0094 101.92 52.9741C102.075 52.9388 102.223 52.8682 102.355 52.7664C102.487 52.6645 102.601 52.5333 102.689 52.3803C102.696 52.3696 102.702 52.3589 102.708 52.348Z" fill="#C2A4A4"/>
<path d="M104.79 19.6045C104.79 19.6045 102.276 17.3936 99.8097 21.4283C97.3437 25.4629 98.02 35.005 98.3023 35.527C98.5846 36.0489 98.8171 35.3541 98.5658 36.6937C98.3614 37.7832 99.1969 37.6886 98.8862 37.9073C98.0669 38.4841 100.254 38.6672 99.0963 39.153C97.9385 39.6388 102.97 40 102.97 40C102.97 40 103.603 39.6265 103.271 38.0782C103.084 37.2086 102.508 36.8643 103.166 36.5002C103.824 36.1361 102.607 34.8431 102.622 34.5739C102.637 34.3047 105 28.5221 105 28.5221L104.79 19.6045Z" fill="white"/>
<path d="M52.5369 93.5478L50.0577 93.5476L48.8782 84.0232L52.5376 84.0234L52.5369 93.5478Z" fill="#A0616A"/>
<path d="M52.6244 96.1237L45 96.1234V96.0274C45.0001 95.2435 45.3127 94.4918 45.8693 93.9376C46.4258 93.3833 47.1806 93.0719 47.9676 93.0719H47.9678L49.3605 92.0197L51.9589 93.0721L52.6245 93.0721L52.6244 96.1237Z" fill="#4F527D"/>
<path d="M70.0803 93.5478L72.5597 93.5476L73.7392 84.0232L70.0798 84.0234L70.0803 93.5478Z" fill="#A0616A"/>
<path d="M69.9928 96.1237L77.6172 96.1234V96.0274C77.6171 95.2435 77.3044 94.4918 76.7479 93.9376C76.1914 93.3833 75.4366 93.0719 74.6496 93.0719H74.6494L73.2567 92.0197L70.6582 93.0721L69.9927 93.0721L69.9928 96.1237Z" fill="#4F527D"/>
<path d="M48.7692 77.0243C48.8058 76.4809 49.0969 73.4754 49.0969 73.4754L49.7943 67.1014L51.0234 50.2055L51.1036 49.0995L57.542 47.8685L61.9424 45.7676L67.1726 47.4327L71.2452 48.9537C71.2452 48.9537 71.2522 49.6048 71.2836 50.3913C71.3254 51.421 71.3986 52.6832 71.573 53.0114C71.8641 53.5913 71.7909 56.7045 71.7909 56.7045C71.7909 56.7045 72.0803 63.0385 72.4447 63.733C72.809 64.4275 72.8822 65.8739 72.7724 66.1638C72.6626 66.4538 73.1368 74.0605 73.1368 74.0605C73.1368 74.0605 74.3539 87.5215 73.5903 89.5513C72.8267 91.581 69.9411 90.2514 69.9411 90.2514C69.9411 90.2514 70.0806 89.7097 69.2438 89.4545C68.4069 89.1992 65.8581 70.1121 65.8581 70.1121C65.8581 70.1121 65.3839 66.1985 64.948 65.0769C64.5122 63.9553 64.1112 60.8039 64.1112 60.8039C64.1112 60.8039 61.4193 55.588 61.3845 54.4282C61.3845 54.4282 61.0323 53.343 60.6993 54.5376C60.3663 55.7322 59.3848 58.5936 59.3848 58.5936L58.4277 62.1078L57.3014 67.3584L56.5727 71.779C56.5727 71.779 55.4813 77.6459 55.307 77.8994C55.1326 78.1529 55.307 83.5129 55.307 83.5129C55.307 83.5129 54.4631 88.0776 53.2707 88.8745C52.0782 89.6715 48.9188 88.8872 48.9188 88.8872C48.9188 88.8872 48.7326 77.5678 48.7692 77.0243Z" fill="#4F527D"/>
<path d="M51.5159 33.6899L52.9473 37.9838L51.1812 40.0776L51.9589 40.8747L51.3852 42.0015L49.8894 53.8118L58.0903 56.9093L60.852 53.461L63.0295 56.9093L72.519 54.6001L70.0989 39.5395V38.5549L69.4157 36.6537V32.6289L71.22 20.6485L65.8345 18.7699L63.2596 16.7402L62.4263 19.5947L58.8785 18.9662L58.786 16.8217L56.0715 19.376L53.7857 20.0252L51.0487 20.6485L50.7 21.5167L51.3973 21.3432L51.2841 32.6378L51.5159 33.6899Z" fill="#4F527D"/>
<path d="M49.0645 49.4005L50.4418 36.1231L50.8054 30.6585L46.9502 29.9642C46.9502 29.9642 47.103 33.8716 46.598 36.0761C46.0996 38.2516 46.5318 49.109 46.5626 49.3994C46.2795 49.6515 46.0799 49.9833 45.9903 50.3509C45.9006 50.7184 45.9251 51.1044 46.0605 51.4578C46.1959 51.8112 46.4359 52.1154 46.7486 52.33C47.0614 52.5446 47.4322 52.6596 47.812 52.6598C48.1918 52.66 48.5627 52.5453 48.8757 52.331C49.1886 52.1167 49.4289 51.8128 49.5646 51.4595C49.7004 51.1062 49.7252 50.7202 49.6359 50.3526C49.5466 49.9849 49.3474 49.653 49.0645 49.4005V49.4005Z" fill="#A0616A"/>
<path d="M45.3041 38.8743L46.3763 39.0949L50.0549 39.8536L50.2589 39.8953L50.693 38.1764L51.1968 37.6416L52.1557 32.6376L52.2063 32.3771L53.655 29.2935L54.6574 20.0251L50.93 20.6919C50.9108 20.711 50.8934 20.7318 50.8759 20.7526C50.3407 21.3569 49.9589 22.1972 49.3348 23.0428C47.3037 25.7949 45.7452 32.4813 45.8062 36.1449C45.808 36.2039 45.7469 36.2682 45.6737 36.3342C45.3281 36.6506 45.1026 37.076 45.0353 37.5388C44.9679 38.0015 45.0629 38.4732 45.3041 38.8743Z" fill="#4F527D"/>
<path d="M73.0297 49.4005L71.6524 36.1231L71.2888 30.6585L75.144 29.9642C75.144 29.9642 74.9912 33.8716 75.4962 36.0761C75.9946 38.2516 75.5623 49.109 75.5316 49.3994C75.8147 49.6515 76.0143 49.9833 76.1039 50.3509C76.1936 50.7184 76.1691 51.1044 76.0336 51.4578C75.8982 51.8112 75.6583 52.1154 75.3455 52.33C75.0328 52.5446 74.662 52.6596 74.2822 52.6598C73.9024 52.66 73.5315 52.5453 73.2185 52.331C72.9056 52.1167 72.6653 51.8128 72.5296 51.4595C72.3938 51.1062 72.3689 50.7202 72.4582 50.3526C72.5475 49.9849 72.7468 49.653 73.0297 49.4005V49.4005Z" fill="#A0616A"/>
<path d="M76.7901 38.8744L75.7179 39.0949L72.0393 39.8536L71.8354 39.8953L71.4013 38.1764L70.8974 37.6416L69.9385 32.6376L69.888 32.3771L68.4392 29.2935L68.7705 20.0251L71.1642 20.6919C71.1834 20.711 71.2009 20.7318 71.2183 20.7526C71.7535 21.3569 72.1353 22.1972 72.7595 23.0428C74.7905 25.7949 76.349 32.4813 76.288 36.1449C76.2863 36.2039 76.3473 36.2682 76.4205 36.3342C76.7662 36.6506 76.9917 37.076 77.059 37.5388C77.1263 38.0015 77.0314 38.4732 76.7901 38.8744V38.8744Z" fill="#4F527D"/>
<path d="M57.0346 21.3965L58.786 16.8217L63.2596 16.7401L64.744 21.3965L70.0797 51.0815C70.0797 51.0815 53.7334 55.6151 53.8992 50.1655C54.0735 44.4357 54.8601 36.8247 54.8601 36.8247L57.0346 21.3965Z" fill="#9499C7"/>
<path d="M60.9228 15.5421C63.8332 15.5421 66.1927 13.1923 66.1927 10.2937C66.1927 7.39508 63.8332 5.04529 60.9228 5.04529C58.0123 5.04529 55.6528 7.39508 55.6528 10.2937C55.6528 13.1923 58.0123 15.5421 60.9228 15.5421Z" fill="#A0616A"/>
<path d="M55.342 6.48627C56.2 5.55625 57.2731 3.85387 60.5235 3.139C64.5399 2.25566 66.4378 5.86915 65.425 5.92838C68.3867 6.8216 66.4841 12.9257 65.635 12.4137C65.6277 12.4087 65.6207 12.4032 65.614 12.3974C65.1574 12.0625 64.7741 11.6384 64.4876 11.151C64.2011 10.6636 64.0173 10.1231 63.9476 9.56258L63.7865 8.11812C63.7635 9.29337 62.5573 9.44884 61.3251 9.016C61.398 8.75833 61.537 8.52402 61.7285 8.33621C61.9201 8.1484 62.1575 8.01357 62.4173 7.94502C61.5583 8.72056 60.4672 9.19338 59.3119 9.29069C59.3724 8.99642 59.4955 8.71847 59.6728 8.47548C59.8501 8.2325 60.0776 8.03011 60.3399 7.88192L60.2913 7.83433C59.8101 8.23847 59.2576 8.55001 58.6621 8.75305C57.9828 8.94695 57.1689 8.84205 56.7035 8.31251C56.5782 8.16638 56.4836 7.99672 56.4252 7.81355C56.5258 8.7443 55.8989 9.80675 55.412 9.62434C55.0069 9.54594 54.7708 7.10538 55.342 6.48627Z" fill="#1A1C29"/>
<path d="M22.2938 14.7614L11.6482 14.8651C11.1478 12.4032 9.46659 5.94347 10.9807 4.18153C11.0497 3.51838 11.372 2.90738 11.8804 2.47572C12.3888 2.04407 13.0443 1.82501 13.7102 1.86417V1.86417C15.3602 -0.717112 18.1085 -0.329549 19.9661 1.28257C21.8355 1.92724 22.5403 3.07253 22.2938 4.62673C23.6783 5.83787 23.9337 7.31138 23.3122 8.98868L22.2938 14.7614Z" fill="#4F527D"/>
<path d="M21.2691 21.3155L13.5886 20.2527L12.0525 18.0089C14.1685 16.6062 14.9173 14.6469 13.9431 11.9863L19.2604 11.8682C19.0112 14.2375 19.7952 16.072 21.9781 17.1823L21.2691 21.3155Z" fill="#FFB9B9"/>
<path d="M11.7727 90.5506L11.479 94.5632C11.4657 94.7448 11.4914 94.9271 11.5544 95.098C11.6174 95.2689 11.7163 95.4243 11.8443 95.5539C11.9723 95.6835 12.1266 95.7842 12.2968 95.8493C12.467 95.9144 12.6491 95.9424 12.831 95.9313L14.8932 95.8065C14.9888 95.8007 15.0819 95.7739 15.1659 95.7281C15.2499 95.6823 15.3228 95.6185 15.3794 95.5414C15.436 95.4642 15.4749 95.3756 15.4934 95.2817C15.5118 95.1878 15.5093 95.091 15.4861 94.9982L14.3414 90.4222L11.7727 90.5506Z" fill="#EAECEE"/>
<path d="M18.4488 90.4222L17.3041 94.9982C17.2809 95.091 17.2784 95.1878 17.2969 95.2817C17.3153 95.3756 17.3542 95.4642 17.4108 95.5414C17.4674 95.6186 17.5403 95.6823 17.6244 95.7281C17.7084 95.7739 17.8015 95.8007 17.897 95.8065L19.9593 95.9313C20.1411 95.9424 20.3233 95.9144 20.4935 95.8493C20.6636 95.7842 20.8179 95.6835 20.946 95.5539C21.074 95.4243 21.1728 95.2689 21.2358 95.098C21.2988 94.9271 21.3246 94.7448 21.3113 94.5631L21.0176 90.5506L18.4488 90.4222Z" fill="#EAECEE"/>
<path d="M21.1509 91.1076L18.3679 90.8285L15.5973 61.2305L14.5502 90.7332L11.816 90.6353L7.20776 49.7755H24.8138L21.1509 91.1076Z" fill="#47A4DD"/>
<path d="M16.8971 13.8758C19.8338 13.8758 22.2144 11.4966 22.2144 8.56168C22.2144 5.62677 19.8338 3.24756 16.8971 3.24756C13.9605 3.24756 11.5798 5.62677 11.5798 8.56168C11.5798 11.4966 13.9605 13.8758 16.8971 13.8758Z" fill="#FFB9B9"/>
<path d="M27.4134 50.7203L5.90796 50.9565C9.09948 38.814 11.0086 27.5346 7.68039 19.7804L12.9977 17.1824C15.5615 19.855 18.4169 19.5794 21.5053 16.9462L26.5863 18.2452C25.716 28.4137 26.1061 39.3043 27.4134 50.7203Z" fill="#47A4DD"/>
<path d="M0 38.2026L13.3523 43.5167L16.3375 44.3942C16.471 44.4334 16.6111 44.4453 16.7494 44.4291C16.8876 44.4128 17.0211 44.3689 17.1419 44.2998C17.2627 44.2307 17.3683 44.1379 17.4523 44.027C17.5363 43.916 17.597 43.7893 17.6307 43.6544C17.6899 43.4177 17.6634 43.1678 17.5557 42.9489C17.4481 42.73 17.2664 42.5563 17.0428 42.4585L13.9431 41.5091L4.60831 36.0769L6.55798 30.9399L2.48139 28.7552L0 38.2026Z" fill="#FFB9B9"/>
<path d="M0.11792 28.5192C2.65832 29.5097 4.67888 31.2001 6.26233 33.479L11.2251 26.2754L7.68027 19.7804L0.11792 28.5192Z" fill="#47A4DD"/>
<path d="M22.8899 7.70032C20.7318 7.1446 18.61 7.0683 16.5474 7.77319C15.2335 8.40916 13.6556 8.35056 11.9009 7.82656V2.52466L21.3742 2.77713L22.8899 7.70032Z" fill="#4F527D"/>
<path d="M22.8899 7.70032C20.7318 7.1446 18.61 7.0683 16.5474 7.77319C15.2335 8.40916 13.6556 8.35056 11.9009 7.82656V2.52466L21.3742 2.77713L22.8899 7.70032Z" fill="#4F527D"/>
<path d="M16.8971 13.8758C19.8338 13.8758 22.2144 11.4966 22.2144 8.56168C22.2144 5.62677 19.8338 3.24756 16.8971 3.24756C13.9605 3.24756 11.5798 5.62677 11.5798 8.56168C11.5798 11.4966 13.9605 13.8758 16.8971 13.8758Z" fill="#FFB9B9"/>
<path d="M22.8899 7.70032C20.7318 7.1446 18.61 7.0683 16.5474 7.77319C15.2335 8.40916 13.6556 8.35056 11.9009 7.82656V2.52466L21.3742 2.77713L22.8899 7.70032Z" fill="#4F527D"/>
<path d="M22.8899 7.70032C20.7318 7.1446 18.61 7.0683 16.5474 7.77319C15.2335 8.40916 13.6556 8.35056 11.9009 7.82656V2.52466L21.3742 2.77713L22.8899 7.70032Z" fill="#4F527D"/>
<path d="M13.3078 32.011C12.8902 32.0115 12.4899 32.1774 12.1947 32.4725C11.8994 32.7676 11.7334 33.1676 11.7329 33.5849L12.3545 46.5896C12.355 47.0069 12.5211 47.407 12.8163 47.7021C13.1115 47.9971 13.5118 48.1631 13.9294 48.1636H21.0364C21.454 48.1631 21.8543 47.9971 22.1495 47.7021C22.4448 47.407 22.6108 47.0069 22.6113 46.5896L23.2329 33.5849C23.2324 33.1676 23.0664 32.7676 22.7711 32.4725C22.4759 32.1774 22.0756 32.0115 21.6581 32.011H13.3078Z" fill="#C22E49"/>
<path d="M33.4728 37.2201L21.8344 41.8516L20.9564 42.201C20.9284 42.2119 20.9005 42.2212 20.8709 42.2306L17.9291 43.0956C17.553 43.2059 17.0324 42.6996 16.7278 42.3501C16.577 42.1817 16.4916 41.9649 16.487 41.7389C16.4824 41.513 16.5591 41.2929 16.7029 41.1185C16.7436 41.0717 16.7883 41.0285 16.8366 40.9896C16.95 40.9014 17.0835 40.8427 17.2251 40.8188L20.1638 40.241C20.2693 40.2203 20.3706 40.1825 20.4638 40.1292L21.8344 39.3309L28.9505 35.1902C29.1484 35.0752 29.299 34.8938 29.3756 34.6782C29.4521 34.4626 29.4496 34.2269 29.3685 34.0129L28.0103 30.433C27.927 30.2139 27.9263 29.9721 28.0084 29.7526C28.0904 29.5331 28.2497 29.3509 28.4563 29.2402L30.7065 28.0349C30.8351 27.9659 30.9777 27.927 31.1235 27.9211C31.2693 27.9152 31.4146 27.9424 31.5483 28.0007C31.6821 28.059 31.8009 28.1469 31.8957 28.2578C31.9906 28.3686 32.059 28.4995 32.0959 28.6407L34.0493 36.077C34.1094 36.3051 34.0839 36.5472 33.9777 36.7578C33.8715 36.9683 33.6919 37.1328 33.4728 37.2201V37.2201Z" fill="#FFB9B9"/>
<path d="M34.1487 27.2201C31.6083 28.2106 29.5878 29.901 28.0043 32.1799L23.0415 24.9763L26.5864 18.2451L34.1487 27.2201Z" fill="#47A4DD"/>
<path d="M20.4357 13.2915C18.1096 14.2585 15.6705 14.2192 13.1317 13.2915C13.8704 12.0313 12.7661 11.0443 12.1992 9.77215L21.6789 9.4906C20.954 10.5958 19.8843 11.9015 20.4357 13.2915Z" fill="white"/>
<path d="M21.5785 9.70087L21.4685 9.59106L21.6239 9.43575L22.5523 8.35291L22.6704 8.45386L21.738 9.54105L21.5785 9.70087Z" fill="white"/>
<path d="M11.5497 9.04261L11.4502 9.16199L12.3826 9.93855L12.4822 9.81918L11.5497 9.04261Z" fill="white"/>
<path d="M21.8465 10.614L20.2144 13.1764L20.3455 13.2598L21.9776 10.6974L21.8465 10.614Z" fill="white"/>
<path d="M11.721 10.6137L11.5898 10.6971L13.2216 13.2598L13.3527 13.1764L11.721 10.6137Z" fill="white"/>
<path d="M22.1452 39.1112V41.9249L21.1651 42.315C21.1339 42.3272 21.1027 42.3376 21.0697 42.348L17.786 43.3136C17.3662 43.4367 16.785 42.8715 16.445 42.4814C16.2767 42.2935 16.1813 42.0514 16.1762 41.7992C16.1711 41.547 16.2567 41.3013 16.4173 41.1066C16.4626 41.0544 16.5126 41.0062 16.5665 40.9627C16.693 40.8643 16.842 40.7988 17.0001 40.772L20.2804 40.1271C20.3981 40.104 20.5112 40.0619 20.6152 40.0023L22.1452 39.1112Z" fill="white"/>
<path d="M23.5656 29.075H23.0041C23.0041 21.1368 21.3686 15.6048 19.7749 15.6048L19.6345 15.0436C21.0638 15.0436 21.975 17.3459 22.4877 19.2775C23.1828 21.8959 23.5656 25.3754 23.5656 29.075Z" fill="#4F527D"/>
<path d="M10.649 27.1106H10.0874C10.0874 19.8405 11.7341 15.3242 14.1589 15.3242L14.0185 15.8855C12.3413 15.8855 10.649 19.3564 10.649 27.1106Z" fill="#4F527D"/>
<path d="M23.2848 30.6184C24.0602 30.6184 24.6888 29.9902 24.6888 29.2153C24.6888 28.4403 24.0602 27.8121 23.2848 27.8121C22.5094 27.8121 21.8809 28.4403 21.8809 29.2153C21.8809 29.9902 22.5094 30.6184 23.2848 30.6184Z" fill="#4F527D"/>
<path d="M8.40264 30.4781H7.84106C7.84106 28.4665 8.97472 26.83 10.3682 26.83V27.3912C9.28438 27.3912 8.40264 28.776 8.40264 30.4781Z" fill="#4F527D"/>
<path d="M12.8953 30.4781H12.3337C12.3337 28.776 11.452 27.3912 10.3682 27.3912V26.83C11.7617 26.83 12.8953 28.4665 12.8953 30.4781Z" fill="#4F527D"/>
<path d="M12.6146 31.1796C12.9247 31.1796 13.1762 30.9284 13.1762 30.6184C13.1762 30.3084 12.9247 30.0571 12.6146 30.0571C12.3044 30.0571 12.053 30.3084 12.053 30.6184C12.053 30.9284 12.3044 31.1796 12.6146 31.1796Z" fill="#4F527D"/>
<defs>
<filter id="filter0_b_4010_4266" x="130" y="-2.30591" width="49" height="102.306" filterUnits="userSpaceOnUse" color-interpolation-filters="sRGB">
<feFlood flood-opacity="0" result="BackgroundImageFix"/>
<feGaussianBlur in="BackgroundImageFix" stdDeviation="2"/>
<feComposite in2="SourceAlpha" operator="in" result="effect1_backgroundBlur_4010_4266"/>
<feBlend mode="normal" in="SourceGraphic" in2="effect1_backgroundBlur_4010_4266" result="shape"/>
</filter>
</defs>
</svg>
