<svg width="122" height="98" viewBox="0 0 136 109" fill="none" xmlns="http://www.w3.org/2000/svg">
<path d="M49.9179 28.8894C55.8028 24.8831 63.908 26.4397 69.6416 30.6846C71.5126 32.0888 73.2311 33.7064 74.766 35.508C75.6611 36.5437 76.5097 37.631 77.3213 38.7556C77.5213 39.0316 77.7203 39.3103 77.9155 39.5917C78.049 39.782 78.1814 39.9736 78.3128 40.1665C79.9588 42.5802 81.4679 45.1194 82.9453 47.6355C86.6333 53.9166 90.4174 60.3847 96.0366 64.7946C97.1944 65.7029 98.8096 66.5209 99.9957 65.6535C101.025 64.9003 101.069 63.3165 100.835 62.0185C99.9639 57.2096 96.8225 53.2244 93.4852 49.8226C90.1479 46.4207 86.4534 43.3018 83.9318 39.1911C81.4101 35.0805 80.258 29.5926 82.4667 25.2874C84.3703 21.5774 88.4658 19.4963 92.4634 19.3994C96.4606 19.3034 100.344 20.9425 103.726 23.1932C107.108 25.4449 110.081 28.3019 113.185 30.9621C115.055 32.5671 117.667 34.1596 119.706 32.8007C121.428 31.6524 121.562 28.8956 120.536 27.0395C119.51 25.1834 117.678 24.0169 115.922 22.929C110.47 19.5503 105.018 16.172 99.566 12.7939C97.8933 11.7584 96.1841 10.6898 94.9494 9.1108C93.7143 7.53274 93.0288 5.31481 93.7095 3.3985C94.3811 1.51003 96.2568 0.310878 98.1545 0.0606226C100.051 -0.189055 101.964 0.365657 103.738 1.11704C110.386 3.9335 126.04 22.3592 130.212 25.5095C132.893 27.5327 135.709 30.0942 135.98 33.5597C136.318 37.8741 132.249 41.4545 128.164 41.873C124.08 42.2927 120.122 40.4194 116.472 38.4388C112.823 36.4583 109.099 34.2746 105.003 33.9996C100.907 33.7247 96.3115 36.0344 95.3406 40.2408C94.4962 43.9009 96.6428 47.6778 99.4389 50.0197C101.628 51.8533 104.196 53.0744 106.677 54.4475C107.366 54.8276 108.048 55.2206 108.713 55.6408C110.415 56.7187 112.007 57.9807 113.461 59.4064C114.988 60.9007 116.359 62.5634 117.549 64.3661C118.5 65.8024 119.329 67.3238 120.027 68.9129C120.133 69.1556 120.237 69.4017 120.337 69.6512C120.432 69.8897 120.524 70.1313 120.611 70.3753C121.75 73.54 122.194 77.0863 120.739 80.0406C119.288 82.9868 116.144 84.7314 113.006 84.9733C111.19 85.0876 109.371 84.834 107.646 84.2264C106.377 83.7917 105.149 83.2349 103.977 82.563C98.5433 79.4862 94.2413 74.6073 90.3124 69.5916C86.3845 64.5762 82.6857 59.2954 78.0225 55.038C73.3596 50.7797 67.5163 47.5602 61.3486 47.6091C55.1813 47.6571 48.8235 51.6212 47.0719 57.8591C44.5187 53.2181 42.7922 47.9275 43.0202 42.5676C43.2481 37.2076 45.6443 31.7993 49.9179 28.8894Z" fill="#4F527D"/>
<path d="M74 46C74.5523 46 75 45.7761 75 45.5C75 45.2239 74.5523 45 74 45C73.4477 45 73 45.2239 73 45.5C73 45.7761 73.4477 46 74 46Z" fill="#63A650"/>
<path d="M49 47C49.5523 47 50 46.5523 50 46C50 45.4477 49.5523 45 49 45C48.4477 45 48 45.4477 48 46C48 46.5523 48.4477 47 49 47Z" fill="#C22E49"/>
<path d="M116.5 16C116.776 16 117 15.7761 117 15.5C117 15.2239 116.776 15 116.5 15C116.224 15 116 15.2239 116 15.5C116 15.7761 116.224 16 116.5 16Z" fill="#C22E49"/>
<path d="M57.5 42C57.7761 42 58 41.7761 58 41.5C58 41.2239 57.7761 41 57.5 41C57.2239 41 57 41.2239 57 41.5C57 41.7761 57.2239 42 57.5 42Z" fill="#F1F3F5"/>
<path d="M129.5 32C129.776 32 130 31.7761 130 31.5C130 31.2239 129.776 31 129.5 31C129.224 31 129 31.2239 129 31.5C129 31.7761 129.224 32 129.5 32Z" fill="#63A650"/>
<path d="M109.5 32C109.776 32 110 31.7761 110 31.5C110 31.2239 109.776 31 109.5 31C109.224 31 109 31.2239 109 31.5C109 31.7761 109.224 32 109.5 32Z" fill="#F1F3F5"/>
<path d="M98.5 72C98.7761 72 99 71.7761 99 71.5C99 71.2239 98.7761 71 98.5 71C98.2239 71 98 71.2239 98 71.5C98 71.7761 98.2239 72 98.5 72Z" fill="#47A4DD"/>
<path d="M85.5 33C85.7761 33 86 32.7761 86 32.5C86 32.2239 85.7761 32 85.5 32C85.2239 32 85 32.2239 85 32.5C85 32.7761 85.2239 33 85.5 33Z" fill="#F1F3F5"/>
<path d="M85.5 25C85.7762 25 86 24.7761 86 24.5C86 24.2239 85.7762 24 85.5 24C85.2239 24 85 24.2239 85 24.5C85 24.7761 85.2239 25 85.5 25Z" fill="#63A650"/>
<path d="M115.5 85C115.776 85 116 84.7761 116 84.5C116 84.2239 115.776 84 115.5 84C115.224 84 115 84.2239 115 84.5C115 84.7761 115.224 85 115.5 85Z" fill="#F1F3F5"/>
<path d="M108.5 79C108.776 79 109 78.7761 109 78.5C109 78.2239 108.776 78 108.5 78C108.224 78 108 78.2239 108 78.5C108 78.7761 108.224 79 108.5 79Z" fill="#F1F3F5"/>
<path d="M54 31C54.8769 31.0475 56.6905 31.5497 58.6557 32.1989C60.6198 32.8488 62.7503 33.6417 64.8535 34.4259C68.5354 35.7977 72.217 37.169 75.8985 38.5398C76.4046 38.728 76.9122 38.9178 77.4211 39.1094C77.6159 39.4033 77.8098 39.7002 78 40C77.5527 39.8176 77.1035 39.6412 76.6557 39.473C74.7426 38.756 73.0824 38.2832 71.2256 37.6308C68.3682 36.6278 65.3536 35.3105 62.43 34.0839C59.5066 32.8562 56.1524 31.5348 54 31Z" fill="#47A4DD"/>
<path d="M120.106 23.5285L129 38L120.608 23.2406C120.598 23.1938 120.577 23.1499 120.546 23.1126C120.516 23.0753 120.477 23.0456 120.432 23.0261C120.388 23.0066 120.339 22.9978 120.29 23.0005C120.241 23.0031 120.194 23.0171 120.152 23.0412C120.11 23.0654 120.074 23.099 120.048 23.1394C120.022 23.1798 120.006 23.2257 120.001 23.2733C119.997 23.3209 120.004 23.3689 120.022 23.4133C120.04 23.4577 120.069 23.4972 120.106 23.5285V23.5285Z" fill="#47A4DD"/>
<path d="M116.5 67C116.776 67 117 66.7761 117 66.5C117 66.2239 116.776 66 116.5 66C116.224 66 116 66.2239 116 66.5C116 66.7761 116.224 67 116.5 67Z" fill="#63A650"/>
<path d="M47.5 66C48.8807 66 50 64.6569 50 63C50 61.3431 48.8807 60 47.5 60C46.1193 60 45 61.3431 45 63C45 64.6569 46.1193 66 47.5 66Z" fill="#63A650"/>
<path d="M45.7036 61.922C45.45 61.8414 45.2147 61.6972 45.0143 61.4996C44.8139 61.3021 44.6532 61.0558 44.5436 60.7783C44.434 60.5008 44.3781 60.1988 44.3799 59.8935C44.3816 59.5882 44.441 59.2871 44.5539 59.0113L40 53.8047L43.2477 53L47.0743 58.0676C47.4606 58.3185 47.7543 58.7252 47.8997 59.2107C48.0451 59.6962 48.032 60.2267 47.8631 60.7018C47.6941 61.1769 47.381 61.5635 46.983 61.7884C46.585 62.0133 46.1297 62.0608 45.7036 61.9219L45.7036 61.922Z" fill="#A0616A"/>
<path d="M24.1349 24L26.7466 25.8072L29.8036 26.559C29.8036 26.559 32.2282 44.7508 33.4196 45.842C34.611 46.9332 33.6071 47.0366 33.93 48.5418C34.2528 50.0469 35 53.1262 35 53.1262C27.7426 57.8489 21.2592 58.4255 15.7276 53.9025C15.6413 53.6044 15.6545 53.2843 15.7652 52.9952C15.8759 52.7061 16.0774 52.4654 16.3363 52.313C17.2715 51.703 15.2429 49.3135 16.0085 48.8349C16.7742 48.3564 15.4212 44.7768 15.4212 44.7768L15.6573 37.0896L15 35.9105L15.9259 28.3417L18.3129 27.2281L19.1301 24.6847L24.1349 24Z" fill="#4F527D"/>
<path d="M11 103.299L13.4109 104L17 94.0348L13.4418 93L11 103.299Z" fill="#A0616A"/>
<path d="M10 106.719L17.87 109L17.8962 108.89C18.1095 107.993 17.9913 107.04 17.5678 106.239C17.1442 105.438 16.4498 104.856 15.6375 104.621L15.6373 104.621L14.4861 103L11.5175 103.426L10.8305 103.227L10 106.719Z" fill="#4F527D"/>
<path d="M24.0006 106L26.7106 106L28 95L24 95.0003L24.0006 106Z" fill="#A0616A"/>
<path d="M24.0001 109L32 109V108.883C31.9999 107.928 31.6719 107.012 31.0879 106.337C30.504 105.661 29.712 105.282 28.8862 105.282H28.886L27.4248 104L24.6983 105.282L24 105.282L24.0001 109Z" fill="#4F527D"/>
<path d="M17.1579 53.38C16.5263 54.2352 16.8421 57.1425 16.8421 57.1425C16.8421 57.1425 15.7368 66.5487 16.2105 67.4038C16.6842 68.2589 15.8947 68.943 15.421 70.1401C14.9474 71.3373 14.4737 74.2446 14.4737 74.2446C11.7895 76.6389 11.9474 87.5843 11.9474 87.5843L11 97.3325C11.3158 98.3587 15.7368 98.5297 16.3684 98.3587C17 98.1876 23.1579 74.0736 23.1579 74.0736C23.1579 74.0736 22.8421 97.3325 22.8421 98.3587C22.8421 99.3848 27.1053 98.8717 28.0526 98.8717C29 98.8717 35 56.9715 35 56.9715V54.5772L34.2105 53.3801C34.2105 53.3801 17.7895 52.5249 17.1579 53.38Z" fill="#9499C7"/>
<path d="M18.5906 25L14.8225 27.7311L13 29.4691L15.4175 47.0019C15.4175 47.0019 11.7446 62.9389 17.5329 61.9564C23.3212 60.9738 22.9967 46.6515 22.9967 46.6515L18.5906 25Z" fill="#9499C7"/>
<path d="M24.0928 49.7378C23.864 49.8778 23.6083 49.9642 23.3436 49.991C23.079 50.0178 22.8118 49.9844 22.561 49.8931C22.3102 49.8018 22.0819 49.6548 21.8921 49.4625C21.7022 49.2702 21.5555 49.0372 21.4623 48.78L15 48.9412L16.781 46L22.6447 46.2978C23.0735 46.1648 23.5346 46.1987 23.9408 46.3933C24.3469 46.5879 24.6699 46.9296 24.8484 47.3536C25.0269 47.7776 25.0485 48.2545 24.9093 48.6939C24.7701 49.1334 24.4796 49.5048 24.0928 49.7378V49.7378Z" fill="#A0616A"/>
<path d="M21 23C23.7614 23 26 20.5376 26 17.5C26 14.4624 23.7614 12 21 12C18.2386 12 16 14.4624 16 17.5C16 20.5376 18.2386 23 21 23Z" fill="#A0616A"/>
<path d="M15.5552 13.7418C16.1001 12.7983 17.1227 12.1695 18.114 12.3462C18.2063 11.6382 18.4703 10.9721 18.8774 10.4204C19.2845 9.86871 19.8191 9.4526 20.4229 9.21737C21.0267 8.98215 21.6765 8.93682 22.3018 9.08632C22.927 9.23583 23.5035 9.57444 23.9687 10.0653C24.1217 9.94474 24.2999 9.87045 24.486 9.8496C24.6722 9.82875 24.86 9.86205 25.0313 9.94627C25.3725 10.1199 25.6693 10.3865 25.8945 10.7218C26.4634 11.5156 26.8292 12.4673 26.9531 13.4754C27.077 14.4835 26.9543 15.5103 26.5981 16.4466C26.7193 15.9537 26.2779 15.49 25.8319 15.3794C25.386 15.2688 24.9182 15.3734 24.466 15.3014C23.8864 15.2091 23.3654 14.8328 22.7848 14.7481C22.2969 14.6769 21.8063 14.8169 21.3305 14.9573C20.8548 15.0976 20.3654 15.2407 19.8768 15.1757C19.3882 15.1108 18.7588 17.1831 18.7673 18.6427C18.7689 18.9193 18.718 19.2744 18.4764 19.3331C18.179 19.4054 18.0066 18.9459 17.7235 18.8207C17.593 18.7789 17.4531 18.7954 17.3333 18.8667C17.2134 18.938 17.123 19.0586 17.081 19.2031C17.0454 19.3499 17.0415 19.5042 17.0699 19.6531C17.0983 19.802 17.158 19.9411 17.2441 20.0589C17.4181 20.2925 17.6247 20.493 17.8559 20.6528L17.7393 20.7614C17.5453 21.0481 17.143 21.0606 16.8634 20.8831C16.5961 20.6805 16.3796 20.4047 16.2346 20.0818C15.7174 19.1191 15.2637 18.0933 15.0812 16.9886C14.8986 15.884 15.0104 14.6852 15.5552 13.7418Z" fill="#4F527D"/>
<path d="M17.0769 30.0557L14.8565 28C14.8565 28 12.2638 28.874 11.8242 30.7114C8.36401 35.4911 6.5005 41.0734 6 47.3408C10.5175 49.184 16.0491 49.8379 22 50L20.7692 45.0139L12.3077 43.3519L17.0769 30.0557Z" fill="#9499C7"/>
<path d="M9.20993 106.063L7.94431 103.783L7.69151 105.086C7.64719 105.314 7.60287 105.546 7.56183 105.776C7.20235 105.432 6.81986 105.114 6.44562 104.808C5.29654 103.873 4.14801 102.937 3 102L3.35949 104.337C3.58111 105.776 3.81259 107.244 4.36084 108.56C4.42159 108.709 4.48724 108.856 4.55785 109H9.89941C9.94238 108.867 9.9721 108.728 9.98805 108.588C9.98938 108.579 9.98992 108.569 9.98966 108.56C10.0734 107.668 9.63346 106.827 9.20993 106.063Z" fill="#63A650"/>
<path d="M54.4673 103.965L56.8177 100.057L57.2872 102.29C57.3695 102.681 57.4518 103.079 57.528 103.473C58.1957 102.883 58.906 102.338 59.601 101.814C61.735 100.211 63.868 98.6067 66 97L65.3324 101.006C64.9208 103.473 64.4909 105.991 63.4727 108.246C63.3599 108.502 63.238 108.754 63.1069 109H53.1868C53.107 108.771 53.0518 108.534 53.0222 108.293C53.0197 108.278 53.0187 108.262 53.0192 108.246C52.8637 106.716 53.6807 105.274 54.4673 103.965Z" fill="#63A650"/>
<path d="M52.2093 109H41.7907C41.3159 108.999 40.8608 108.797 40.5251 108.437C40.1894 108.078 40.0005 107.59 40 107.081V67.9186C40.0005 67.4099 40.1894 66.9223 40.5251 66.5626C40.8608 66.2029 41.3159 66.0006 41.7907 66H52.2093C52.6841 66.0006 53.1392 66.2029 53.4749 66.5626C53.8106 66.9223 53.9995 67.4099 54 67.9186V107.081C53.9995 107.59 53.8106 108.078 53.4749 108.437C53.1392 108.797 52.6841 108.999 52.2093 109V109Z" fill="#EAECEE"/>
<path d="M50.2957 67H44.7043C44.5176 66.9997 44.3386 66.9128 44.2065 66.7583C44.0745 66.6038 44.0002 66.3943 44 66.1758V63.8242C44.0002 63.6057 44.0745 63.3962 44.2065 63.2417C44.3386 63.0872 44.5176 63.0003 44.7043 63H50.2957C50.4824 63.0003 50.6614 63.0872 50.7935 63.2417C50.9255 63.3962 50.9998 63.6057 51 63.8242V66.1758C50.9998 66.3943 50.9255 66.6038 50.7935 66.7583C50.6614 66.9128 50.4824 66.9997 50.2957 67Z" fill="#558C46"/>
<path d="M25 25L29.0569 26.4741C29.0569 26.4741 33.5446 25.9571 33.7265 33.2467C33.9083 40.5363 33.072 44.448 33.072 44.448C33.072 44.448 42.4072 64.9324 32.295 58.8824L29.34 46.1858L26.2944 26.2462L25 25Z" fill="#9499C7"/>
<path d="M29 41.5542L31.2527 41.2341C31.2527 41.2341 31.4702 44.7287 32.5478 45.2583C33.6253 45.7879 33.2621 45.8751 33.3892 46.4357C33.5162 46.9963 32.431 48.5498 33.2845 48.9361C34.1381 49.3224 41.5985 59 41.5985 59L46 54.8067C45.6975 53.9633 44.2418 54.6496 44.1506 53.7555C44.0357 52.4038 41.7317 48.7111 41.2414 48.2376C40.751 47.7641 40.9449 46.9294 40.6908 45.8082C40.4366 44.6869 40.613 45.7266 40.1895 43.8578C39.7659 41.989 34.026 32.4666 33.8265 30.7411C33.6269 29.0157 31.2901 28 31.2901 28L29.4739 28.4358L29 41.5542Z" fill="#9499C7"/>
</svg>
